<svg id="Layer_1" data-name="Layer 1" xmlns="http://www.w3.org/2000/svg" viewBox="0 0 22 23.97"><defs><style>.cls-1{fill:#a5a5a4;}</style></defs><title>magnifier</title><path class="cls-1" d="M307.57,427.91a1.48,1.48,0,0,1-1.1-.49l-5.19-5.66a9.42,9.42,0,0,1-4.35,1.23h-.35a9.53,9.53,0,0,1-.34-19.06h.35a9.53,9.53,0,0,1,7,16l5.05,5.51a1.5,1.5,0,0,1-.1,2.11,1.53,1.53,0,0,1-.94.39Zm-11.22-21a6.55,6.55,0,0,0,.23,13.1h.25a6.55,6.55,0,0,0-.24-13.09Z" transform="translate(-287.06 -403.94)"/><path class="cls-1" d="M307.93,426.09l-5.7-6.23a8.46,8.46,0,1,0-.77.61l5.74,6.28a.51.51,0,0,0,.38.16.54.54,0,0,0,.32-.13A.49.49,0,0,0,307.93,426.09ZM296.86,421a7.55,7.55,0,1,1,7.27-7.81A7.56,7.56,0,0,1,296.86,421Z" transform="translate(-287.06 -403.94)"/></svg>